<?xml version="1.0" encoding="UTF-8" standalone="no"?>
<svg
   xmlns:dc="http://purl.org/dc/elements/1.1/"
   xmlns:cc="http://creativecommons.org/ns#"
   xmlns:rdf="http://www.w3.org/1999/02/22-rdf-syntax-ns#"
   xmlns:svg="http://www.w3.org/2000/svg"
   xmlns="http://www.w3.org/2000/svg"
   viewBox="250 150 426 615"
   height="32px"
   width="32px"
   xml:space="preserve"
   id="svg2"
   version="1.1"><metadata
     id="metadata8"><rdf:RDF><cc:Work
         rdf:about=""><dc:format>image/svg+xml</dc:format><dc:type
           rdf:resource="http://purl.org/dc/dcmitype/StillImage" /></cc:Work></rdf:RDF></metadata><defs
     id="defs6"><clipPath
       id="clipPath18"
       clipPathUnits="userSpaceOnUse"><path
         id="path16"
         d="M 0,792 H 612 V 0 H 0 Z" /></clipPath></defs><g
     transform="matrix(1.3333333,0,0,-1.3333333,0,1056)"
     id="g10"><g
       id="g12"><g
         clip-path="url(#clipPath18)"
         id="g14"><g
           transform="translate(420.3887,583.7471)"
           id="g20"><path
             id="path22"
             style="fill:#FFFFFF;fill-opacity:1;fill-rule:nonzero;stroke:none"
             d="m 0,0 h 0.012 c 0,-7.636 -0.124,-15.274 0.035,-22.907 0.154,-7.421 5.43,-12.377 12.895,-12.387 14.435,-0.019 28.87,-0.02 43.304,0 7.702,0.01 13.093,5.31 13.119,13.014 0.052,14.795 0.056,29.59 -0.002,44.384 C 69.333,29.85 64.206,35.129 56.46,35.189 41.907,35.302 27.352,35.308 12.799,35.185 5.191,35.121 0.234,30.241 0.042,22.667 -0.149,15.116 0,7.556 0,0 m -220.282,69.357 h 4.8 c 2.251,-0.577 2.94,-2.215 2.94,-4.324 -0.001,-0.64 0.014,-1.28 0.012,-1.919 -0.037,-12.835 -0.083,-25.67 -0.11,-38.505 -0.027,-14.115 -0.041,-28.23 -0.052,-42.344 -0.003,-3.877 -0.059,-7.757 0.061,-11.63 0.072,-2.334 1.034,-3.386 3.321,-3.413 3.188,-0.037 6.388,0.155 9.565,0.445 1.787,0.162 2.982,1.321 3.291,3.163 0.197,1.178 0.371,2.375 0.387,3.566 0.054,4.477 0.052,8.956 0.05,13.434 -0.014,25.59 -0.039,51.181 -0.047,76.772 -0.001,2.685 -0.003,4.006 3.141,4.755 h 186.24 c 0.432,-0.048 0.863,-0.139 1.293,-0.14 11.079,-0.026 22.159,-0.064 33.238,-0.05 5.623,0.007 11.173,-0.564 16.639,-1.876 17.209,-4.132 31.435,-13.163 42.939,-26.496 9.189,-10.65 15.28,-22.865 17.803,-36.772 1.347,-7.43 1.504,-14.959 1.554,-22.469 0.095,-14.637 -0.027,-29.275 -0.068,-43.912 -0.007,-2.289 -0.634,-2.893 -2.935,-2.934 -0.48,-0.008 -0.96,-0.008 -1.44,-0.008 -40.757,-0.004 -81.514,0.013 -122.271,-0.056 -2.725,-0.004 -4.817,0.785 -6.763,2.648 -5.359,5.134 -11.243,9.618 -17.601,13.444 -22.672,13.646 -47.061,18.411 -73.127,13.633 -20.3,-3.721 -37.879,-13.015 -52.99,-27.004 -2.005,-1.855 -4.159,-2.7 -6.9,-2.697 -40.997,0.049 -81.994,0.038 -122.99,0.041 -2.498,0 -3.102,0.59 -3.097,3.124 0.007,3.679 0.08,7.359 0.058,11.039 -0.088,15.512 -0.746,31.028 0.483,46.53 0.746,9.41 2.851,18.456 6.844,27.031 6.033,12.955 15.315,23.207 26.536,31.838 0.166,0.128 0.391,0.182 0.624,0.286 0.024,-0.216 0.049,-0.334 0.048,-0.452 -0.019,-24.478 -0.042,-48.955 -0.059,-73.433 -0.003,-3.398 -0.087,-6.799 0.067,-10.19 0.104,-2.287 1.072,-3.261 3.322,-3.276 3.069,-0.021 6.154,0.145 9.207,0.459 2.041,0.209 3.043,1.43 3.317,3.533 0.169,1.305 0.258,2.63 0.26,3.946 0.027,27.677 0.037,55.355 0.046,83.033 0,0.599 -0.014,1.203 -0.093,1.795 -0.375,2.775 -0.213,3.108 2.267,4.28 2.467,1.166 4.981,2.17 7.745,2.373 1.988,0.146 2.488,-0.377 2.208,-2.316 -0.101,-0.71 -0.172,-1.431 -0.172,-2.146 0.005,-25.038 0.024,-50.076 0.035,-75.114 0.002,-5.479 -0.042,-10.959 -0.025,-16.438 0.008,-2.341 0.891,-3.363 3.232,-3.412 2.953,-0.062 5.921,-0.009 8.865,0.222 2.726,0.213 3.874,1.421 4.256,4.172 0.214,1.537 0.28,3.106 0.286,4.661 0.051,14.679 0.113,29.357 0.094,44.035 -0.02,14.558 -0.129,29.116 -0.2,43.674 -0.02,3.911 0.348,4.428 3.866,5.394" /></g><g
           transform="translate(236.4082,505.9453)"
           id="g24"><path
             id="path26"
             style="fill:#FFFFFF;fill-opacity:1;fill-rule:evenodd;stroke:none"
             d="m 0,0 c -15.928,-23.722 -22.686,-49.333 -18.016,-77.537 4.08,-24.633 15.207,-45.418 34.147,-61.875 37.896,-32.932 92.266,-35.115 132.079,-5.111 22.599,17.029 36.186,39.718 40.597,67.628 4.411,27.919 -2.348,53.417 -18.169,76.895 h 1.481 c 34.04,0.016 68.079,0.03 102.118,0.048 3.76,0.002 7.52,0.03 11.28,0.033 0.718,0.001 1.443,-0.017 2.155,-0.103 1.749,-0.21 2.739,-1.085 2.864,-2.84 0.169,-2.349 0.189,-4.712 0.187,-7.069 -0.017,-17.039 -0.07,-34.078 -0.082,-51.118 -0.031,-41.558 0.044,-83.119 -0.107,-124.678 -0.074,-20.406 -7.488,-38.084 -21.212,-53.062 -12.098,-13.203 -27.027,-21.572 -44.665,-24.836 -4.459,-0.826 -9.053,-1.285 -13.585,-1.289 -83.358,-0.072 -166.717,-0.25 -250.074,0.043 -37.65,0.133 -68.879,25.103 -77.891,60.986 -1.791,7.133 -2.517,14.389 -2.512,21.742 0.026,38.758 0.028,77.52 0.005,116.278 -0.012,19.839 -0.096,39.678 -0.139,59.517 -0.002,0.878 0.052,1.76 0.143,2.633 0.256,2.469 1.347,3.594 3.857,3.712 2.633,0.122 5.275,0.087 7.914,0.086 C -72.307,0.059 -36.987,0.029 -1.668,0 Z" /></g><g
           transform="translate(381.8662,444.1426)"
           id="g28"><path
             id="path30"
             style="fill:#FFFFFF;fill-opacity:1;fill-rule:evenodd;stroke:none"
             d="m 0,0 c 0.183,33.123 -25.56,60.989 -60.387,60.508 -33.008,-0.456 -59.686,-27.943 -58.681,-60.649 1.014,-33.031 27.639,-59.498 61.211,-58.589 C -26.211,-57.873 0.328,-31.127 0,0 m -59.586,81.775 c 44.632,-0.023 80.791,-36.303 80.723,-80.994 -0.068,-44.842 -36.113,-80.65 -81.162,-80.627 -44.667,0.024 -80.849,36.239 -80.843,80.918 0.008,44.478 36.515,80.725 81.282,80.703" /></g></g></g></g></svg>