<?xml version="1.0" encoding="utf-8"?>
<!-- Generator: Adobe Illustrator 17.0.0, SVG Export Plug-In . SVG Version: 6.00 Build 0)  -->
<!DOCTYPE svg PUBLIC "-//W3C//DTD SVG 1.1//EN" "http://www.w3.org/Graphics/SVG/1.1/DTD/svg11.dtd">
<svg version="1.1" id="Слой_1" xmlns="http://www.w3.org/2000/svg" xmlns:xlink="http://www.w3.org/1999/xlink" x="0px" y="0px"
	 width="255.12px" height="141.73px" viewBox="0 0 255.12 141.73" enable-background="new 0 0 255.12 141.73" xml:space="preserve">
<circle fill="none" stroke="#FFFFFF" stroke-width="3.2" stroke-linecap="round" stroke-linejoin="round" stroke-miterlimit="10" cx="133.875" cy="43.481" r="5.5"/>
<path fill="none" stroke="#FFFFFF" stroke-width="3.2" stroke-linecap="round" stroke-linejoin="round" stroke-miterlimit="10" d="
	M123.777,81.108L123.777,81.108c-2.981-0.585-4.923-3.476-4.338-6.456l2.985-16.21c0.585-2.981,3.476-4.923,6.456-4.338l0,0
	c0.791,0.155,2.147,0.387,3.143,0.767"/>
<line fill="none" stroke="#FFFFFF" stroke-width="3.2" stroke-linecap="round" stroke-linejoin="round" stroke-miterlimit="10" x1="133.219" y1="60.56" x2="130.716" y2="74.313"/>
<polyline fill="none" stroke="#FFFFFF" stroke-width="3.2" stroke-linecap="round" stroke-linejoin="round" stroke-miterlimit="10" points="
	128.881,54.104 143.936,57.779 151.375,54 "/>
<path fill="none" stroke="#FFFFFF" stroke-width="3.2" stroke-linecap="round" stroke-linejoin="round" stroke-miterlimit="10" d="
	M123.441,81.024l15.994,4.162c0,0,1.154,6.987,1.403,7.953s0.798,4.863,4.05,4.521c3.253-0.343,2.802-4.99,2.664-5.824
	s-1.644-11.977-1.644-11.977l-15.193-5.546"/>
<polyline fill="none" stroke="#FFFFFF" stroke-width="3.2" stroke-linecap="round" stroke-linejoin="round" stroke-miterlimit="10" points="
	119,54 111,56 104.5,65.989 "/>
<path fill="none" stroke="#FFFFFF" stroke-width="3.2" stroke-linecap="round" stroke-linejoin="round" stroke-miterlimit="10" d="
	M115.125,79.239l-5.875,4.5c0,0-6.708-4.5-8-5.5c-1.292-1-3.884-1.5-5.217,0.5c-1.333,2,0.396,4.096,1.842,5s11,7.875,11,7.875
	l12.5-6.625"/>
<circle fill="none" stroke="#FFFFFF" stroke-width="3.2" stroke-linecap="round" stroke-linejoin="round" stroke-miterlimit="10" cx="127.648" cy="70.908" r="44.227"/>
</svg>
