<?xml version="1.0" encoding="utf-8"?>
<!-- Generator: Adobe Illustrator 17.0.0, SVG Export Plug-In . SVG Version: 6.00 Build 0)  -->
<!DOCTYPE svg PUBLIC "-//W3C//DTD SVG 1.1//EN" "http://www.w3.org/Graphics/SVG/1.1/DTD/svg11.dtd">
<svg version="1.1" xmlns="http://www.w3.org/2000/svg" xmlns:xlink="http://www.w3.org/1999/xlink" x="0px" y="0px"
	 width="595.28px" height="841.89px" viewBox="0 0 595.28 841.89" enable-background="new 0 0 595.28 841.89" xml:space="preserve">
<g id="_x31_2">
	<path fill="none" stroke="#364548" stroke-width="4" stroke-linecap="round" stroke-linejoin="round" stroke-miterlimit="10" d="
		M303.254,495.373c-25.41,0-53.55-11.042-69.532-28.342"/>
</g>
<g id="_x39_">
	<path fill="none" stroke="#364548" stroke-width="4" stroke-linecap="round" stroke-linejoin="round" stroke-miterlimit="10" d="
		M223.906,359.657c15.444-24.787,43.45-40.964,74.804-40.964c48.313,0,87.478,39.165,87.478,87.478
		c0,9.393-1.132,18.553-3.872,27.034"/>
</g>
<g id="_x31_1">
	<path fill="none" stroke="#364548" stroke-width="4" stroke-linecap="round" stroke-linejoin="round" stroke-miterlimit="10" d="
		M218.194,549.367l11.929-22.64l-0.58-0.166c-11.634-6.627-22.206-14.903-31.399-24.509l0.004-0.002l17.008-17.885l0.084,0.079
		c-8.698-9.319-15.83-20.117-20.98-31.976l-0.496-0.943l-44.299,23.29"/>
</g>
<g id="_x31_0">
	<path fill="none" stroke="#364548" stroke-width="4" stroke-linecap="round" stroke-linejoin="round" stroke-miterlimit="10" d="
		M168.919,358.18c5.12-13.476,12.297-25.939,21.148-37.004l0.005,0.004l20.525,14.097l1.71-1.255
		c7.339-8.502,15.93-15.893,25.485-21.889l-0.014,0.012l-15.02-20.572l0.412-0.272c18.665-12.016,40.426-19.639,63.822-21.407
		L287,270V146"/>
</g>
<g id="_x31_">
	<path fill="none" stroke="#364548" stroke-width="4" stroke-linecap="round" stroke-linejoin="round" stroke-miterlimit="10" d="
		M307.149,694L307,545l-0.165-0.812c33.506-2.246,63.724-16.495,86.392-38.483l-0.002-0.002l17.755,18.095l0.007,0.007
		c11.076-10.81,20.614-23.188,28.255-36.777l0.005,0.002l-43.708-24.326l0.005-0.057c2.633-4.666,4.943-9.648,6.898-14.648h-0.001
		l23.198,8.897l0.003,0.031c6.042-15.485,9.357-32.154,9.357-49.778c0-3.136-0.105-6.15-0.312-9.15h-0.005
		c0,0,24.899-2.066,24.9-2.065c-0.703-9.856-2.285-19.551-4.668-28.842l1.374-0.292l23.662-4.047l-0.195,0.039
		c-3.238-13.392-7.913-26.228-13.853-38.325l-0.649-1.31c-26.484-53.314-77.326-91.695-138.182-101.336L327,220v-74"/>
</g>
<g id="_x32_">
	<path fill="none" stroke="#364548" stroke-width="4" stroke-linecap="round" stroke-linejoin="round" stroke-miterlimit="10" d="
		M317,146v123l-0.209,1.851c5.533,0.779,11.209,1.888,16.209,3.305v0.002l6.366-23.695c17.448,4.648,33.78,12.126,48.397,21.913
		l-0.037,0.001L374,292.824v-0.01c6,4.277,12.407,9.071,17.954,14.322l0.061,0.008l16.894-17.938l0.002-0.003
		c13.415,12.639,24.68,27.534,33.189,44.079l0.966,1.915l22.454-11.499"/>
</g>
<g id="_x33_">
	<path fill="none" stroke="#364548" stroke-width="4" stroke-linecap="round" stroke-linejoin="round" stroke-miterlimit="10" d="
		M479.931,363.514c2.367,9.968,3.939,20.245,4.644,30.759c0.282,4.206,0.425,8.45,0.425,12.728c0,7.071-0.391,14.05-1.154,20.918
		l-24.789-3.935l0.149-0.319c-1.656,16.767-5.86,32.785-12.22,47.662l0.152,0.065l22.647,11.373l-0.604-0.266
		c-12.353,28.05-31.379,52.5-55.067,71.338l-0.073-0.092l-15.136-19.257c-4.918,3.933-15.751,10.424-15.751,10.424l12.921,21.611
		l0.004,0.005c-26.078,16.149-56.411,26.082-88.929,27.731"/>
</g>
<g id="_x34_">
	<path fill="none" stroke="#364548" stroke-width="4" stroke-linecap="round" stroke-linejoin="round" stroke-miterlimit="10" d="
		M308,147v149l-0.033,0.393c32.347,2.695,60.806,19.076,79.571,43.335l-0.004,0.003l19.957-15.558l0.007-0.003
		c10.935,14.197,19.159,30.59,23.895,48.404c0.599,2.254,1.143,4.53,1.629,6.828l-0.005-0.002l-24.515,5.421l0.002,0.001
		c1.636,7.635,2.496,15.556,2.496,23.679c0,10.987-1.575,21.607-4.512,31.645l-0.007-0.002l-24.174-6.94l0.009,0.003
		c-3.983,13.265-11.03,25.204-20.317,34.997l-0.002-0.002l18.554,17.258l0.005,0.005c-12.997,13.852-29.462,24.411-48.009,30.293
		l-0.002-0.006l-7.752-24.275l0.002,0.005c-6.855,2.157-14.073,3.493-21.54,3.893c0-0.001,1.338,26.16,1.338,26.16L298,522v173"/>
</g>
<g id="_x35_">
	<path fill="none" stroke="#364548" stroke-width="4" stroke-linecap="round" stroke-linejoin="round" stroke-miterlimit="10" d="
		M297,146v149c-15.533,0-30.051,3.148-43.51,8.841l9.51,22.532v0.004c-16,6.89-29.837,18.572-39.318,33.279l0.223,0.002
		l-20.653-13.606l-0.002-0.002C191.709,363.715,185,385.042,185,407.718c0,4.075,0.217,8.282,0.639,12.282h0.001l24.93-3h-0.003
		c1.264,10.936,4.6,21.42,9.612,30.902c3.696,6.992,8.303,13.44,13.662,19.12l-0.119,0.009L215,484.241v0.003
		c10,9.743,21.304,18.729,33.57,24.645l0.119-0.001l-10.705,22.095l-0.004,0.003c15.017,7.222,31.548,11.796,48.987,13.118L287,545
		v149"/>
</g>
<g id="_x36_">
</g>
<g id="_x37_">
	<path fill="none" stroke="#364548" stroke-width="4" stroke-linecap="round" stroke-linejoin="round" stroke-miterlimit="10" d="
		M287,594.211c-98.669-5.447-177-87.251-177-187.281c0-9.12,0.651-17.93,1.909-26.93h0.002l25.039,2h-0.003
		c0.822-5,1.897-10,3.213-15h0.003l-24.756-4.706l0.062-0.073c8.85-36.057,28.53-68.086,54.53-92.566v-0.001l18.089,17.767
		l-0.038-0.002c3.498-3.191,7.119-6.232,10.887-9.112l-0.006,0.003l-16.471-19.363l-0.009-0.009
		c24.154-18.796,53.028-31.811,84.546-36.968L267,222v-76"/>
</g>
<g id="_x38_">
	<path fill="none" stroke="#364548" stroke-width="4" stroke-linecap="round" stroke-linejoin="round" stroke-miterlimit="10" d="
		M287,569.564C240.032,566.569,198.488,544,170.755,509h0.006l18.998-16.669l-0.007,0.047c-4.657-5.865-8.844-12.094-12.507-18.681
		l-0.008-0.186L156,487.099v0.008c-13-23.527-20.921-50.684-20.921-79.607c0-1.231-0.079-2.458-0.079-3.682v0.188L160.07,403h-0.001
		c0.475-16,3.415-29.952,8.432-43.515l0.241-0.804l-23.948-6.86l-0.003-0.001c7.938-21.766,20.397-41.357,36.24-57.638
		c0,0,18.701,16.14,18.701,16.14l-0.002-0.002c6.767-6.843,14.247-12.979,22.32-18.287l0.447-0.269l-14.577-19.86l-0.001-0.002
		c20.291-13.432,43.772-22.431,69.064-25.617L277,245v-99"/>
</g>
<g id="clock3">
	
		<circle fill="#FFFFFF" stroke="#73C2A9" stroke-width="4" stroke-linecap="round" stroke-linejoin="round" stroke-miterlimit="10" cx="385.317" cy="272.164" r="11.984"/>
	
		<polyline fill="#FFFFFF" stroke="#73C2A9" stroke-width="4" stroke-linecap="round" stroke-linejoin="round" stroke-miterlimit="10" points="
		375.684,265.031 387.727,272.377 380.658,282.188 	"/>
</g>
<g id="clock2">
	
		<circle fill="#FFFFFF" stroke="#73C2A9" stroke-width="4" stroke-linecap="round" stroke-linejoin="round" stroke-miterlimit="10" cx="326.317" cy="493.164" r="11.984"/>
	
		<polyline fill="#FFFFFF" stroke="#73C2A9" stroke-width="4" stroke-linecap="round" stroke-linejoin="round" stroke-miterlimit="10" points="
		328.04,503.426 326.317,493.164 314.892,494.469 	"/>
	
		<circle fill="#FFFFFF" stroke="#73C2A9" stroke-width="4" stroke-linecap="round" stroke-linejoin="round" stroke-miterlimit="10" cx="444.317" cy="335.164" r="11.984"/>
	
		<polyline fill="#FFFFFF" stroke="#73C2A9" stroke-width="4" stroke-linecap="round" stroke-linejoin="round" stroke-miterlimit="10" points="
		438.869,326.298 444.317,335.164 454.418,329.667 	"/>
	
		<circle fill="#FFFFFF" stroke="#73C2A9" stroke-width="4" stroke-linecap="round" stroke-linejoin="round" stroke-miterlimit="10" cx="469.317" cy="484.164" r="11.984"/>
	
		<polyline fill="#FFFFFF" stroke="#73C2A9" stroke-width="4" stroke-linecap="round" stroke-linejoin="round" stroke-miterlimit="10" points="
		464.117,493.178 469.317,484.164 459.672,477.902 	"/>
	
		<circle fill="#FFFFFF" stroke="#73C2A9" stroke-width="4" stroke-linecap="round" stroke-linejoin="round" stroke-miterlimit="10" cx="248.317" cy="510.164" r="11.984"/>
	
		<polyline fill="#FFFFFF" stroke="#73C2A9" stroke-width="4" stroke-linecap="round" stroke-linejoin="round" stroke-miterlimit="10" points="
		243.299,519.28 248.317,510.164 238.548,504.097 	"/>
	
		<circle fill="#FFFFFF" stroke="#73C2A9" stroke-width="4" stroke-linecap="round" stroke-linejoin="round" stroke-miterlimit="10" cx="134.317" cy="405.164" r="11.984"/>
	
		<polyline fill="#FFFFFF" stroke="#73C2A9" stroke-width="4" stroke-linecap="round" stroke-linejoin="round" stroke-miterlimit="10" points="
		144.637,403.83 134.317,405.164 135.19,416.631 	"/>
	
		<circle fill="#FFFFFF" stroke="#73C2A9" stroke-width="4" stroke-linecap="round" stroke-linejoin="round" stroke-miterlimit="10" cx="184.317" cy="258.164" r="11.984"/>
	
		<polyline fill="#FFFFFF" stroke="#73C2A9" stroke-width="4" stroke-linecap="round" stroke-linejoin="round" stroke-miterlimit="10" points="
		192.495,251.73 184.317,258.164 190.943,267.563 	"/>
</g>
<g id="clock1">
	
		<circle fill="#FFFFFF" stroke="#73C2A9" stroke-width="4" stroke-linecap="round" stroke-linejoin="round" stroke-miterlimit="10" cx="187.317" cy="418.164" r="11.984"/>
	
		<polyline fill="#FFFFFF" stroke="#73C2A9" stroke-width="4" stroke-linecap="round" stroke-linejoin="round" stroke-miterlimit="10" points="
		184.811,408.576 185,420 197.5,418.833 	"/>
</g>
<g id="logo">
	<g>
		<defs>
			<path id="SVGID_1_" d="M299.249,382.636v11.068l18.587,6.328L299.249,382.636z M298.174,379.688l0.074-0.067l0.501-0.455
				l0.5-0.456l44.446,40.452h-41.371l-23.76-21.625l18.342-16.694L298.174,379.688z M352.336,415.133
				c0.314-2.363,0.471-4.746,0.471-7.131c0-29.579-23.978-53.557-53.557-53.557c-29.579,0-53.557,23.978-53.557,53.557
				c0,2.385,0.156,4.768,0.471,7.131l53.087-48.318L352.336,415.133z"/>
		</defs>
		<clipPath id="SVGID_2_">
			<use xlink:href="#SVGID_1_"  overflow="visible"/>
		</clipPath>
		<linearGradient id="SVGID_3_" gradientUnits="userSpaceOnUse" x1="299.2487" y1="365.942" x2="299.2487" y2="418.382">
			<stop  offset="0" style="stop-color:#EA4F3F"/>
			<stop  offset="1" style="stop-color:#EC6043"/>
		</linearGradient>
		<rect x="245.691" y="354.445" clip-path="url(#SVGID_2_)" fill="url(#SVGID_3_)" width="107.115" height="64.717"/>
	</g>
	<path fill-rule="evenodd" clip-rule="evenodd" fill="#2B4245" d="M270.954,404.462l-0.906,0.825l-21.617,19.674
		c7.268,21.8,27.734,36.598,50.817,36.598c21.978,0,41.653-13.418,49.748-33.681h-50.164l-26.804-24.395l-0.299,0.272l-0.299,0.272
		L270.954,404.462z M272.021,406.179l18.762,16.895l-18.762-9.508L272.021,406.179z"/>
</g>
<g id="logo1" display="none">
	<path id="_x31__1_" display="inline" opacity="0.8" fill="#FFFFFF" d="M298.963,407.975l-43.904,32.49
		c9.95,13.387,25.883,22.062,43.844,22.062c17.987,0,33.938-8.701,43.885-22.12L298.963,407.975z"/>
</g>
<g id="logo2" display="none">
	<path display="inline" opacity="0.8" fill="#FFFFFF" d="M298.963,407.975L299,353.333c30.146,0,54.833,24.477,54.845,54.619
		c0-0.008,0.001-0.015,0.001-0.022c0-30.153-24.444-54.597-54.597-54.597c-30.153,0-54.597,24.444-54.597,54.597
		c0,12.131,3.715,23.472,10.408,32.535L298.963,407.975z"/>
</g>
<g id="logo3" display="none">
	<path display="inline" opacity="0.8" fill="#FFFFFF" d="M299.076,353.378l-0.113,54.597l43.825,32.432
		c0,0,11.134-2.279,11.134-32.432C353.922,377.822,329.23,353.378,299.076,353.378z"/>
</g>
<g id="Слой_20">
</g>
</svg>
