<?xml version="1.0" encoding="utf-8"?>
<!-- Generator: Adobe Illustrator 17.0.0, SVG Export Plug-In . SVG Version: 6.00 Build 0)  -->
<!DOCTYPE svg PUBLIC "-//W3C//DTD SVG 1.1//EN" "http://www.w3.org/Graphics/SVG/1.1/DTD/svg11.dtd">
<svg version="1.1" id="Слой_1" xmlns="http://www.w3.org/2000/svg" xmlns:xlink="http://www.w3.org/1999/xlink" x="0px" y="0px"
	 width="255.12px" height="141.73px" viewBox="0 0 255.12 141.73" enable-background="new 0 0 255.12 141.73" xml:space="preserve">
<circle fill="none" stroke="red" stroke-width="3.2" stroke-linecap="round" stroke-linejoin="round" stroke-miterlimit="10" cx="153.375" cy="89.686" r="12"/>
<circle fill="none" stroke="red" stroke-width="3.2" stroke-linecap="round" stroke-linejoin="round" stroke-miterlimit="10" cx="106.372" cy="89.686" r="12"/>
<polyline fill="none" stroke="red" stroke-width="3.2" stroke-linecap="round" stroke-linejoin="round" stroke-miterlimit="10" points="
	153.375,89.686 144.875,70.989 151,67.489 "/>
<circle fill="none" stroke="red" stroke-width="3.2" stroke-linecap="round" stroke-linejoin="round" stroke-miterlimit="10" cx="141.875" cy="46.488" r="5.5"/>
<path fill="none" stroke="red" stroke-width="3.2" stroke-linecap="round" stroke-linejoin="round" stroke-miterlimit="10" d="
	M114.374,72.975L114.374,72.975c-2.175-2.121-2.219-5.603-0.098-7.778L125.098,54.1c2.121-2.175,5.603-2.219,7.778-0.098l0,0
	c0.577,0.563,1.585,1.499,2.211,2.362"/>
<line fill="none" stroke="red" stroke-width="3.2" stroke-linecap="round" stroke-linejoin="round" stroke-miterlimit="10" x1="132.973" y1="61.78" x2="123.9" y2="71.084"/>
<line fill="none" stroke="red" stroke-width="3.2" stroke-linecap="round" stroke-linejoin="round" stroke-miterlimit="10" x1="132.875" y1="54.002" x2="143.465" y2="65.316"/>
<path fill="none" stroke="red" stroke-width="3.2" stroke-linecap="round" stroke-linejoin="round" stroke-miterlimit="10" d="
	M114.138,72.72l10.82,10.851c0,0-1.763,4.806-2.083,5.75c-0.32,0.944-1.994,4.507,0.917,6s5.076-2.644,5.417-3.417
	c0.341-0.773,4.083-9.25,4.083-9.25L123.9,71.084"/>
<line fill="none" stroke="red" stroke-width="3.2" stroke-linecap="round" stroke-linejoin="round" stroke-miterlimit="10" x1="144.875" y1="70.989" x2="135.875" y2="87.489"/>
<polyline fill="none" stroke="red" stroke-width="3.2" stroke-linecap="round" stroke-linejoin="round" stroke-miterlimit="10" points="
	116.341,89.686 106.5,89.686 112.714,79.503 "/>
<line fill="none" stroke="red" stroke-width="3.2" stroke-linecap="round" stroke-linejoin="round" stroke-miterlimit="10" x1="116.341" y1="51.988" x2="101.875" y2="51.988"/>
<line fill="none" stroke="red" stroke-width="3.2" stroke-linecap="round" stroke-linejoin="round" stroke-miterlimit="10" x1="109.108" y1="59.659" x2="89.372" y2="59.659"/>
</svg>
