<?xml version="1.0" encoding="utf-8"?>
<!-- Generator: Adobe Illustrator 17.0.0, SVG Export Plug-In . SVG Version: 6.00 Build 0)  -->
<!DOCTYPE svg PUBLIC "-//W3C//DTD SVG 1.1//EN" "http://www.w3.org/Graphics/SVG/1.1/DTD/svg11.dtd">
<svg version="1.1" id="boots" xmlns="http://www.w3.org/2000/svg" xmlns:xlink="http://www.w3.org/1999/xlink" x="0px" y="0px"
	 width="255.12px" height="141.73px" viewBox="0 0 255.12 141.73" enable-background="new 0 0 255.12 141.73" xml:space="preserve">
<path fill="none" stroke="red" stroke-width="3.2" stroke-linecap="round" stroke-linejoin="round" stroke-miterlimit="10" d="
	M149.433,52.591l33.806,39.799c1.008,1.185,1.164,2.882,0.384,4.232l-4.231,7.329l-73.45-42.406l12.906-22.354
	c1.017-1.762,3.272-2.369,5.037-1.35l3.193,1.844c-1.529,2.648,2.842,8.028,8.412,11.243
	C142.545,55.001,147.904,55.238,149.433,52.591z"/>
<line fill="none" stroke="red" stroke-width="3.2" stroke-linecap="round" stroke-linejoin="round" stroke-miterlimit="10" x1="109.629" y1="55.158" x2="183.079" y2="97.564"/>
<line fill="none" stroke="red" stroke-width="3.2" stroke-linecap="round" stroke-linejoin="round" stroke-miterlimit="10" x1="155.962" y1="60.275" x2="150.536" y2="61.743"/>
<line fill="none" stroke="red" stroke-width="3.2" stroke-linecap="round" stroke-linejoin="round" stroke-miterlimit="10" x1="160.636" y1="65.783" x2="156.001" y2="67.028"/>
<path fill="none" stroke="red" stroke-width="3.2" stroke-linecap="round" stroke-linejoin="round" stroke-miterlimit="10" d="
	M169.713,76.464c-1.019,1.765-3.539,2.824-5.301,1.807l-9.58-5.531c-2.649-1.53-6.029-0.62-7.556,2.025l-0.922,1.597"/>
<path fill="none" stroke="red" stroke-width="3.2" stroke-linecap="round" stroke-linejoin="round" stroke-miterlimit="10" d="
	M119.21,60.689c3.054-5.289,1.24-12.058-4.049-15.112"/>
<line fill="none" stroke="red" stroke-width="3.2" stroke-linecap="round" stroke-linejoin="round" stroke-miterlimit="10" x1="179.392" y1="103.951" x2="111.473" y2="103.951"/>
<line fill="none" stroke="red" stroke-width="3.2" stroke-linecap="round" stroke-linejoin="round" stroke-miterlimit="10" x1="128.067" y1="87.127" x2="96.723" y2="87.127"/>
<line fill="none" stroke="red" stroke-width="3.2" stroke-linecap="round" stroke-linejoin="round" stroke-miterlimit="10" x1="113.317" y1="77.909" x2="80.129" y2="77.909"/>
<line fill="none" stroke="red" stroke-width="3.2" stroke-linecap="round" stroke-linejoin="round" stroke-miterlimit="10" x1="102.254" y1="68.69" x2="70.91" y2="68.69"/>
</svg>
