<?xml version="1.0" encoding="utf-8"?>
<!-- Generator: Adobe Illustrator 17.0.0, SVG Export Plug-In . SVG Version: 6.00 Build 0)  -->
<!DOCTYPE svg PUBLIC "-//W3C//DTD SVG 1.1//EN" "http://www.w3.org/Graphics/SVG/1.1/DTD/svg11.dtd">
<svg version="1.1" id="Слой_1" xmlns="http://www.w3.org/2000/svg" xmlns:xlink="http://www.w3.org/1999/xlink" x="0px" y="0px"
	 width="255.12px" height="141.73px" viewBox="0 0 255.12 141.73" enable-background="new 0 0 255.12 141.73" xml:space="preserve">
<circle fill="none" stroke="red" stroke-width="3.2" stroke-linecap="round" stroke-linejoin="round" stroke-miterlimit="10" cx="128.208" cy="70.676" r="33.212"/>
<line fill="none" stroke="red" stroke-width="3.2" stroke-linecap="round" stroke-linejoin="round" stroke-miterlimit="10" x1="95.538" y1="76.676" x2="160.421" y2="76.676"/>
<circle fill="none" stroke="red" cx="101.375" cy="81.239" r="1.333"/>
<circle fill="none" stroke="red" cx="106.625" cy="83.906" r="1.333"/>
<circle fill="none" stroke="red" cx="111.208" cy="80.739" r="1.333"/>
<circle fill="none" stroke="red" cx="116.958" cy="83.906" r="1.333"/>
<circle fill="none" stroke="red" cx="122.375" cy="81.239" r="1.333"/>
<circle fill="none" stroke="red" cx="127.792" cy="84.239" r="1.333"/>
<circle fill="none" stroke="red" cx="131.292" cy="80.739" r="1.333"/>
<circle fill="none" stroke="red" cx="136.125" cy="83.906" r="1.333"/>
<circle fill="none" stroke="red" cx="140.458" cy="81.239" r="1.333"/>
<circle fill="none" stroke="red" cx="145.125" cy="83.906" r="1.333"/>
<circle fill="none" stroke="red" cx="149.625" cy="81.239" r="1.333"/>
<circle fill="none" stroke="red" cx="154.292" cy="84.239" r="1.333"/>
<line fill="none" stroke="red" stroke-width="3.2" stroke-linecap="round" stroke-linejoin="round" stroke-miterlimit="10" x1="101.959" y1="76.676" x2="101.959" y2="71.572"/>
<line fill="none" stroke="red" stroke-width="3.2" stroke-linecap="round" stroke-linejoin="round" stroke-miterlimit="10" x1="107.625" y1="75.676" x2="107.625" y2="68.906"/>
<line fill="none" stroke="red" stroke-width="3.2" stroke-linecap="round" stroke-linejoin="round" stroke-miterlimit="10" x1="119.292" y1="76.395" x2="119.292" y2="71.291"/>
<line fill="none" stroke="red" stroke-width="3.2" stroke-linecap="round" stroke-linejoin="round" stroke-miterlimit="10" x1="113.459" y1="76.572" x2="113.459" y2="69.802"/>
<line fill="none" stroke="red" stroke-width="3.2" stroke-linecap="round" stroke-linejoin="round" stroke-miterlimit="10" x1="124.959" y1="76.676" x2="124.959" y2="71.572"/>
<line fill="none" stroke="red" stroke-width="3.2" stroke-linecap="round" stroke-linejoin="round" stroke-miterlimit="10" x1="130.626" y1="75.676" x2="130.626" y2="68.905"/>
<line fill="none" stroke="red" stroke-width="3.2" stroke-linecap="round" stroke-linejoin="round" stroke-miterlimit="10" x1="142.292" y1="76.394" x2="142.292" y2="71.29"/>
<line fill="none" stroke="red" stroke-width="3.2" stroke-linecap="round" stroke-linejoin="round" stroke-miterlimit="10" x1="136.459" y1="76.572" x2="136.459" y2="69.802"/>
<line fill="none" stroke="red" stroke-width="3.2" stroke-linecap="round" stroke-linejoin="round" stroke-miterlimit="10" x1="154.294" y1="75.394" x2="154.294" y2="70.29"/>
<line fill="none" stroke="red" stroke-width="3.2" stroke-linecap="round" stroke-linejoin="round" stroke-miterlimit="10" x1="148.461" y1="75.572" x2="148.461" y2="68.801"/>
<line fill="none" stroke="red" stroke-width="3.2" stroke-linecap="round" stroke-linejoin="round" stroke-miterlimit="10" x1="101.375" y1="89.023" x2="155.048" y2="89.023"/>
<path fill="none" stroke="red" stroke-width="3.2" stroke-linecap="round" stroke-linejoin="round" stroke-miterlimit="10" d="
	M96.375,76.676"/>
</svg>
